<?xml version="1.0" encoding="UTF-8" standalone="no"?>
<!-- Created with Inkscape (http://www.inkscape.org/) -->

<svg
   width="59.938072mm"
   height="59.938065mm"
   viewBox="0 0 226.53759 226.53757"
   version="1.1"
   id="svg1"
   xml:space="preserve"
   inkscape:version="1.4 (e7c3feb100, 2024-10-09)"
   sodipodi:docname="voidbox.svg"
   xmlns:inkscape="http://www.inkscape.org/namespaces/inkscape"
   xmlns:sodipodi="http://sodipodi.sourceforge.net/DTD/sodipodi-0.dtd"
   xmlns:xlink="http://www.w3.org/1999/xlink"
   xmlns="http://www.w3.org/2000/svg"
   xmlns:svg="http://www.w3.org/2000/svg"><sodipodi:namedview
     id="namedview1"
     pagecolor="#ffffff"
     bordercolor="#000000"
     borderopacity="0.25"
     inkscape:showpageshadow="2"
     inkscape:pageopacity="0.0"
     inkscape:pagecheckerboard="0"
     inkscape:deskcolor="#d1d1d1"
     inkscape:document-units="mm"
     showguides="true"
     inkscape:zoom="2.3344778"
     inkscape:cx="89.099157"
     inkscape:cy="113.94411"
     inkscape:window-width="1366"
     inkscape:window-height="755"
     inkscape:window-x="0"
     inkscape:window-y="0"
     inkscape:window-maximized="1"
     inkscape:current-layer="layer1"><inkscape:page
       x="6.5565961e-14"
       y="0"
       width="226.5376"
       height="226.53757"
       id="page2"
       margin="0"
       bleed="0" /></sodipodi:namedview><defs
     id="defs1"><linearGradient
       id="linearGradient44"
       inkscape:collect="always"><stop
         style="stop-color:#478061;stop-opacity:1;"
         offset="0"
         id="stop43" /><stop
         style="stop-color:#abc2ab;stop-opacity:1;"
         offset="1"
         id="stop44" /></linearGradient><linearGradient
       inkscape:collect="always"
       xlink:href="#linearGradient44"
       id="linearGradient43"
       gradientUnits="userSpaceOnUse"
       gradientTransform="matrix(1.0657191,0,0,1.0657191,-15.281282,212.30483)"
       x1="65.141747"
       y1="167.99715"
       x2="277.70956"
       y2="167.99715" /><linearGradient
       id="linearGradient6-3"
       inkscape:swatch="gradient"><stop
         style="stop-color:#a516ab;stop-opacity:1;"
         offset="0"
         id="stop6-5" /><stop
         style="stop-color:#9fb14a;stop-opacity:1;"
         offset="1"
         id="stop7-6" /></linearGradient></defs><g
     inkscape:label="Capa 1"
     inkscape:groupmode="layer"
     id="layer1"
     transform="translate(-54.141527,-278.0738)"><path
       id="rect37"
       style="fill:url(#linearGradient43);stroke:none;stroke-width:1.06571;stroke-opacity:1"
       d="m 113.30168,278.0738 c -32.774622,0 -59.160153,26.38553 -59.160153,59.16016 v 108.21679 c 0,6.7844 1.185688,13.26865 3.269531,19.32813 0.821821,1.03914 1.639071,2.08138 2.519531,3.07226 1.006929,1.23329 1.975351,2.49985 2.91211,3.78711 0.663156,0.84385 1.260555,1.73587 1.935547,2.57031 0.716503,0.90431 1.441267,1.79451 2.207031,2.65625 0.957762,1.09263 1.96159,2.14456 2.96875,3.19141 1.440617,1.27714 2.890954,2.54142 4.355469,3.79102 1.903661,1.60556 3.725802,3.30025 5.478515,5.06835 1.401012,1.45999 2.883963,2.83798 4.345703,4.23633 1.224183,1.17003 2.434226,2.35466 3.640625,3.54297 1.154692,1.18114 2.394446,2.27458 3.607422,3.39453 0.171339,0.1601 0.334783,0.32799 0.503906,0.49024 6.642391,2.56924 13.845343,4.03125 21.416013,4.03125 h 108.2168 c 32.77462,0 59.16015,-26.38553 59.16015,-59.16016 V 337.23396 c 0,-32.77463 -26.38553,-59.16016 -59.16015,-59.16016 z" /><path
       id="rect1"
       style="fill:#ffffff;fill-opacity:1;stroke:#000000;stroke-width:1.68407;stroke-opacity:0"
       transform="rotate(43.448558)"
       d="m 362.93766,204.736 -9.5e-4,93.43447 c 0.76983,0.10636 1.54018,0.2045 2.31507,0.27132 1.57916,0.20289 3.15325,0.45641 4.71858,0.74674 1.06176,0.15658 2.10892,0.39334 3.1728,0.53495 1.14208,0.16378 2.28044,0.31163 3.429,0.41063 1.44673,0.13459 2.89892,0.20794 4.35003,0.27532 1.92417,-0.0635 3.84655,-0.14307 5.76913,-0.24302 2.48619,-0.14353 4.9745,-0.16629 7.46288,-0.088 2.02117,0.0965 4.04542,0.077 6.06829,0.087 1.69338,0.008 3.38653,0.0354 5.07957,0.0685 1.65057,0.0634 3.30259,0.005 4.95339,-0.0164 0.67123,-0.005 1.34179,0.0114 2.01226,0.0255 l -9.4e-4,-95.50688 z" /><path
       id="path1"
       style="fill:#ffffff;fill-opacity:1;stroke:#000000;stroke-width:2.81846;stroke-opacity:0"
       d="m 214.63167,365.19017 -39.03542,41.20878 -29.99638,-28.41104 38.02512,-40.14224 a 60.548114,57.96247 15.129941 0 0 -67.1776,13.74334 60.548114,57.96247 15.129941 0 0 4.77042,82.17894 60.548114,57.96247 15.129941 0 0 85.2503,-2.78524 60.548114,57.96247 15.129941 0 0 8.16352,-65.7925 z" /></g></svg>
